<?xml version="1.0" standalone="no"?>
<!DOCTYPE svg PUBLIC "-//W3C//DTD SVG 20010904//EN"
 "http://www.w3.org/TR/2001/REC-SVG-20010904/DTD/svg10.dtd">
<svg version="1.0" xmlns="http://www.w3.org/2000/svg"
 width="641.000000pt" height="628.000000pt" viewBox="0 0 641.000000 628.000000"
 preserveAspectRatio="xMidYMid meet">

<g transform="translate(0.000000,628.000000) scale(0.100000,-0.100000)"
fill="#000000" stroke="none">
<path d="M2945 6139 c-863 -76 -1668 -526 -2183 -1221 -496 -669 -697 -1513
-557 -2333 166 -967 778 -1786 1660 -2220 570 -281 1210 -376 1839 -274 1241
202 2238 1158 2491 2388 48 230 59 350 59 621 0 265 -11 386 -55 605 -87 434
-281 866 -551 1225 -373 496 -868 854 -1468 1061 -366 127 -835 183 -1235 148z
m460 -499 c838 -69 1569 -524 1998 -1244 176 -297 292 -636 339 -996 20 -157
15 -500 -11 -668 -103 -681 -455 -1267 -1006 -1679 -313 -234 -677 -391 -1071
-462 -540 -97 -1106 -12 -1601 240 -733 373 -1245 1085 -1362 1896 -62 430
-19 848 130 1263 128 354 391 741 678 998 531 474 1216 708 1906 652z"/>
<path d="M2040 3101 l0 -1661 380 0 380 0 0 535 0 535 263 0 262 -1 305 -516
c168 -284 312 -525 320 -535 14 -18 35 -18 433 -16 l418 3 -39 65 c-21 36 -85
144 -142 240 -57 96 -144 245 -195 330 -231 387 -345 583 -345 589 0 4 33 30
73 56 202 138 358 367 428 632 27 101 37 331 19 440 -23 149 -98 337 -183 463
-166 246 -395 407 -677 477 -56 14 -173 17 -882 20 l-818 4 0 -1660z m1568
948 c95 -47 176 -154 208 -273 17 -62 18 -205 3 -278 -28 -133 -129 -269 -225
-302 -41 -14 -103 -16 -421 -16 l-373 0 0 450 0 450 373 0 374 0 61 -31z"/>
</g>
</svg>
